<svg id="Layer_1" data-name="Layer 1" xmlns="http://www.w3.org/2000/svg" xmlns:xlink="http://www.w3.org/1999/xlink" viewBox="0 0 64 64"><defs><style>.cls-1{fill:url(#radial-gradient);}.cls-2{fill:#f2a320;}.cls-3{fill:url(#radial-gradient-2);}.cls-4{fill:url(#linear-gradient);}.cls-5{fill:url(#radial-gradient-3);}.cls-6{fill:url(#radial-gradient-4);}.cls-7{fill:#808184;}.cls-8{fill:#6d6e70;}.cls-9{fill:url(#radial-gradient-5);}.cls-10{fill:url(#linear-gradient-2);}.cls-11{fill:url(#linear-gradient-3);}.cls-12{fill:#898b8d;}.cls-13{fill:url(#linear-gradient-4);}.cls-14{fill:url(#linear-gradient-5);}.cls-15{fill:url(#linear-gradient-6);}.cls-16{fill:#fffacf;}.cls-17{fill:url(#radial-gradient-6);}</style><radialGradient id="radial-gradient" cx="1261.64" cy="-6994.49" r="28.88" gradientTransform="translate(-575.02 498.17) scale(0.48 0.06)" gradientUnits="userSpaceOnUse"><stop offset="0" stop-color="#c5c8cb"/><stop offset="0.41" stop-color="#dee0e2"/><stop offset="1" stop-color="#fff"/></radialGradient><radialGradient id="radial-gradient-2" cx="-696.62" cy="319.67" r="14.61" gradientTransform="translate(1002.79 -419.23) scale(1.39)" gradientUnits="userSpaceOnUse"><stop offset="0" stop-color="#f4e589"/><stop offset="0.16" stop-color="#f5e181"/><stop offset="0.42" stop-color="#f6d76c"/><stop offset="0.72" stop-color="#f9c749"/><stop offset="1" stop-color="#fcb623"/></radialGradient><linearGradient id="linear-gradient" x1="1681.19" y1="-943.76" x2="1681.19" y2="-898.11" gradientTransform="translate(-564.82 362.29) scale(0.35)" gradientUnits="userSpaceOnUse"><stop offset="0" stop-color="#fff696"/><stop offset="0.03" stop-color="#fdf290"/><stop offset="0.35" stop-color="#edcf61"/><stop offset="0.62" stop-color="#e1b53f"/><stop offset="0.85" stop-color="#daa62b"/><stop offset="1" stop-color="#d7a023"/></linearGradient><radialGradient id="radial-gradient-3" cx="1176.03" cy="-647.17" r="2.78" gradientTransform="translate(-560.11 334.11) scale(0.5)" gradientUnits="userSpaceOnUse"><stop offset="0" stop-color="#f4e589"/><stop offset="0.2" stop-color="#f5e791"/><stop offset="0.51" stop-color="#f8eba6"/><stop offset="0.89" stop-color="#fdf3c9"/><stop offset="1" stop-color="#fff5d5"/></radialGradient><radialGradient id="radial-gradient-4" cx="1169.7" cy="-640.84" r="1.68" xlink:href="#radial-gradient-3"/><radialGradient id="radial-gradient-5" cx="-2818.94" cy="-488.23" fy="-475.7187262285612" r="13.32" gradientTransform="matrix(-0.45, 0, 0, 0.29, -1239.41, 192.45)" gradientUnits="userSpaceOnUse"><stop offset="0" stop-color="#fff"/><stop offset="0.97" stop-color="#838587"/></radialGradient><linearGradient id="linear-gradient-2" x1="155.21" y1="1012.84" x2="169.07" y2="1012.84" gradientTransform="translate(-130.07 -960.67)" gradientUnits="userSpaceOnUse"><stop offset="0.01" stop-color="#48484a"/><stop offset="0.28" stop-color="#fff"/><stop offset="0.32" stop-color="#efeff0"/><stop offset="0.49" stop-color="#bfbfc1"/><stop offset="0.64" stop-color="#99999b"/><stop offset="0.78" stop-color="#7d7e81"/><stop offset="0.91" stop-color="#6d6e71"/><stop offset="1" stop-color="#67686b"/></linearGradient><linearGradient id="linear-gradient-3" x1="155.21" y1="1009.01" x2="169.07" y2="1009.01" xlink:href="#linear-gradient-2"/><linearGradient id="linear-gradient-4" x1="-3640.05" y1="-77.17" x2="-3581.58" y2="-77.17" gradientTransform="matrix(-0.28, 0, 0, 0.28, -971.15, 66.92)" gradientUnits="userSpaceOnUse"><stop offset="0.1" stop-color="#fff"/><stop offset="0.18" stop-color="#a6a8ab"/><stop offset="0.31" stop-color="#fff"/><stop offset="0.37" stop-color="#9c9ea1"/><stop offset="0.69" stop-color="#dbdcdd"/><stop offset="0.98" stop-color="#9c9ea1"/></linearGradient><linearGradient id="linear-gradient-5" x1="-3639.85" y1="-65.86" x2="-3581.38" y2="-65.86" gradientTransform="matrix(-0.28, 0, 0, 0.28, -971.15, 66.63)" xlink:href="#linear-gradient-4"/><linearGradient id="linear-gradient-6" x1="-3639.54" y1="-56.21" x2="-3581.07" y2="-56.21" xlink:href="#linear-gradient-4"/><radialGradient id="radial-gradient-6" cx="1688.56" cy="-938.45" r="22.81" gradientTransform="translate(-580.3 355.9) scale(0.36)" xlink:href="#radial-gradient-3"/></defs><path class="cls-1" d="M45.89,58.21c0,1-6.22,1.81-13.89,1.81s-13.88-.81-13.88-1.81S24.33,56.39,32,56.39,45.89,57.2,45.89,58.21Z"/><path class="cls-2" d="M46.94,20.67a14.94,14.94,0,1,0-28.26,6.76h0l0,0a15.27,15.27,0,0,0,.86,1.47c1,1.88,2.55,5.24,2.55,8.36,0,4.67,5.7,10.37,5.7,10.37h8.4s5.7-5.7,5.7-10.37c0-3.12,1.53-6.48,2.55-8.36a15.27,15.27,0,0,0,.86-1.47l0,0h0A14.91,14.91,0,0,0,46.94,20.67Z"/><path class="cls-3" d="M17.93,20.67A13.93,13.93,0,0,0,19.46,27s.82,1.42.82,1.42l0,.06C21.53,30.76,23,34.1,23,37.29c0,3.72,4.13,8.36,5.19,9.49h7.66C36.89,45.65,41,41,41,37.29a19.71,19.71,0,0,1,2.66-8.78l0-.06.81-1.39a14.07,14.07,0,1,0-26.6-6.39Z"/><path class="cls-4" d="M38,31l-.38,1.15,0,.06a25.83,25.83,0,0,0-1.27,7.29c0,3.1-2,6.95-2.47,7.89H30.18c-.51-.94-2.47-4.79-2.47-7.89a25.83,25.83,0,0,0-1.27-7.29l0-.06L26,31a18.37,18.37,0,0,1-.68-4c0,.42,0,.85,0,1.29A18.92,18.92,0,0,0,26,33.57l.39,1.18,0,.06a25.83,25.83,0,0,1,1.27,7.29c0,3.1,2,6.95,2.47,7.89h3.64c.51-.94,2.47-4.79,2.47-7.89a25.83,25.83,0,0,1,1.27-7.29l0-.06L38,33.6a18.92,18.92,0,0,0,.73-5.31c0-.44,0-.87,0-1.29A19,19,0,0,1,38,31Z"/><path class="cls-5" d="M24.31,11.3c-.41-.41-1.29-.21-1.95.46s-.87,1.54-.46,2,1.28.2,2-.46S24.72,11.71,24.31,11.3Z"/><path class="cls-6" d="M20.69,14.91c-.25-.25-.77-.12-1.18.28s-.53.93-.28,1.19.78.12,1.19-.28S20.94,15.16,20.69,14.91Z"/><path class="cls-7" d="M25,43.12l14.44,1.79a.89.89,0,0,1,.71.93.66.66,0,0,1,0,.14l-.06.51a1,1,0,0,1-.38.7.76.76,0,0,1-.56.17L24.7,45.57A.92.92,0,0,1,24,44.5l.06-.52a1,1,0,0,1,.38-.69A.72.72,0,0,1,25,43.12Z"/><path class="cls-7" d="M24.94,46l14.44,1.8a.89.89,0,0,1,.71.93v.14l-.07.51a1.05,1.05,0,0,1-.37.7.75.75,0,0,1-.57.16L24.64,48.46a.92.92,0,0,1-.71-1.07l.07-.51A.92.92,0,0,1,24.94,46Z"/><path class="cls-7" d="M24.85,49,39.29,50.8a.88.88,0,0,1,.72.93.71.71,0,0,1,0,.14l-.06.51a1.09,1.09,0,0,1-.38.7.73.73,0,0,1-.56.16L24.56,51.45a.91.91,0,0,1-.71-1.07l.06-.51a1.06,1.06,0,0,1,.38-.7A.74.74,0,0,1,24.85,49Z"/><path class="cls-7" d="M34.37,55.69C34.37,56.4,33.3,57,32,57s-2.37-.57-2.37-1.28S30.7,54.4,32,54.4,34.37,55,34.37,55.69Z"/><path class="cls-8" d="M29.76,55.69c0,.65,1,1.17,2.24,1.17s2.24-.52,2.24-1.17-1-1.18-2.24-1.18S29.76,55,29.76,55.69Z"/><path class="cls-7" d="M38.35,52c0,2.3-2.85,4.17-6.35,4.17S25.65,54.25,25.65,52,28.5,47.78,32,47.78,38.35,49.65,38.35,52Z"/><path class="cls-7" d="M38.41,42.72a.84.84,0,0,1,.83.84v9.3a.84.84,0,0,1-.83.84H25.59a.84.84,0,0,1-.83-.84v-9.3a.84.84,0,0,1,.83-.84Z"/><polygon class="cls-7" points="25.1 42.72 39.24 42.72 39.24 46.08 24.76 46.08 24.76 42.72 25.1 42.72"/><path class="cls-9" d="M26,52c0,2.11,2.69,3.82,6,3.82s6-1.71,6-3.82-2.69-3.82-6-3.82S26,49.84,26,52Z"/><path class="cls-10" d="M25.1,52.86a.5.5,0,0,0,.49.5H38.41a.5.5,0,0,0,.49-.5v-9.3a.49.49,0,0,0-.49-.49H25.59a.49.49,0,0,0-.49.49Z"/><rect class="cls-11" x="25.1" y="43.07" width="13.8" height="2.66"/><path class="cls-12" d="M24.39,44.25c.05-.35.3-.6.57-.57l14.43,1.79a.58.58,0,0,1,.41.69l-.06.51c0,.34-.29.6-.56.56L24.74,45.44a.57.57,0,0,1-.41-.68Z"/><path class="cls-12" d="M24.34,47.14a.57.57,0,0,1,.56-.56l14.44,1.79a.57.57,0,0,1,.4.69l-.05.51a.58.58,0,0,1-.57.56L24.68,48.34a.58.58,0,0,1-.41-.68Z"/><path class="cls-12" d="M24.25,50.13c0-.34.3-.6.56-.56l14.44,1.79a.57.57,0,0,1,.41.68l-.06.52a.58.58,0,0,1-.56.56L24.6,51.33a.57.57,0,0,1-.41-.68Z"/><path class="cls-13" d="M24.16,44a.58.58,0,0,1,.56-.57l14.44,1.79a.59.59,0,0,1,.41.69l-.06.51c0,.34-.3.6-.56.56L24.51,45.22a.57.57,0,0,1-.41-.68Z"/><path class="cls-14" d="M24.11,46.92c0-.34.29-.6.56-.56l14.44,1.79a.58.58,0,0,1,.41.68l-.07.52a.57.57,0,0,1-.56.56L24.46,48.12a.56.56,0,0,1-.41-.68Z"/><path class="cls-15" d="M24,49.91a.58.58,0,0,1,.56-.56L39,51.14a.57.57,0,0,1,.41.68l-.06.52a.58.58,0,0,1-.56.56L24.37,51.11a.58.58,0,0,1-.41-.69Z"/><path class="cls-16" d="M33.91,24.13l-.71.71v-.38l-.9-.19a2.07,2.07,0,0,1-1.73,1.23h-.18a2.64,2.64,0,0,1,.51-.7l-.66-.66L29.16,25.2l-.75-.75-1.19,1.18L26,24.41v2l-.81.13L24,27.31a.48.48,0,0,0-.21.39.5.5,0,0,0,.08.26.48.48,0,0,0,.65.13l1-.64,1.41-.21v-.57l.29.29s.84-.85,1.19-1.19l.75.76.44-.44a1.21,1.21,0,0,0,1,.35,2.59,2.59,0,0,0,1.69-.63V27.1l1.51-1.51v1.94l1.46-1.45.65,1.08.48-.49V27l1.83.39c0,.37.05,1.36.05,1.36h1.4a.46.46,0,0,0,.47-.46.47.47,0,0,0-.47-.47h-.49c0-.38,0-1.2,0-1.2l-1.81-.38V24.41l-1.24,1.24-.65-1.08-.7.7V23.33Z"/><path class="cls-17" d="M41.39,15.34c-1.22,2.12-4,2-6.58.54S30.76,12,32,9.91,36,7.76,38.63,9.26,42.61,13.23,41.39,15.34Z"/></svg>